<svg version="1.1" id="Layer_1" xmlns="http://www.w3.org/2000/svg" xmlns:xlink="http://www.w3.org/1999/xlink" x="0px" y="0px"
	 width="100%" viewBox="0 0 1919 1920" enable-background="new 0 0 1919 1920" xml:space="preserve">
<path fill="#353232" opacity="1.000000" stroke="none" 
	d="
M1321.000000,1921.000000 
	C882.166687,1921.000000 443.833344,1920.994385 5.500021,1921.092896 
	C1.750950,1921.093750 0.906699,1920.249023 0.907267,1916.500000 
	C1.003830,1279.500000 1.003830,642.500000 0.907267,5.500014 
	C0.906699,1.750999 1.750996,0.906695 5.500014,0.907264 
	C642.166687,1.003860 1278.833374,1.003860 1915.500000,0.907264 
	C1919.249023,0.906695 1920.093262,1.750996 1920.092651,5.500013 
	C1919.996094,642.500000 1919.996094,1279.500000 1920.092651,1916.500000 
	C1920.093262,1920.249023 1919.249268,1921.095581 1915.500000,1921.093628 
	C1717.500000,1920.987671 1519.500000,1921.000000 1321.000000,1921.000000 
z"/>
<path fill="#D2FEA7" opacity="1.000000" stroke="none" 
	d="
M1182.879883,492.296814 
	C1183.231201,493.150299 1183.422729,493.655334 1183.691650,494.559082 
	C1184.521118,495.368805 1184.483276,496.191132 1184.878662,497.202148 
	C1185.001709,497.552399 1184.937500,497.535828 1184.947266,497.504150 
	C1189.499268,507.278015 1191.251343,517.792603 1192.213257,528.389038 
	C1193.825195,546.145630 1193.771606,563.935974 1191.431519,581.645630 
	C1188.543701,603.498901 1181.610107,624.020874 1170.475342,643.522522 
	C1163.870728,655.875488 1154.907593,665.798523 1145.487549,675.516602 
	C1132.441040,688.975952 1117.125854,698.975891 1100.571899,707.340515 
	C1095.693237,709.805786 1095.690918,709.945496 1098.329956,714.696838 
	C1108.822632,733.588013 1119.483521,752.388977 1130.250732,771.118774 
	C1139.109375,786.528137 1148.090942,801.885315 1156.866577,817.336792 
	C1164.500366,830.777954 1172.519897,844.004150 1179.885620,857.594788 
	C1188.204956,872.944580 1197.349487,887.822754 1205.694214,903.155640 
	C1206.810913,905.207458 1208.158569,907.185364 1206.888428,910.041199 
	C1205.669189,911.679504 1204.240601,912.246582 1202.712769,912.017029 
	C1194.130371,910.727600 1185.547485,912.340088 1176.906860,911.868103 
	C1167.235596,911.339783 1157.414673,911.947388 1147.668091,911.883057 
	C1136.103271,911.806763 1124.534668,912.422729 1112.973511,911.760498 
	C1109.478149,911.560303 1107.705566,913.282715 1107.489746,916.710327 
	C1107.332886,919.198364 1107.465820,921.695740 1107.288818,924.182068 
	C1107.147949,926.163635 1107.152710,928.229492 1104.776611,929.658569 
	C1100.694214,930.221191 1099.707153,927.209839 1098.249756,924.884033 
	C1090.020142,911.750366 1083.252563,897.796143 1075.546387,884.364258 
	C1058.977417,855.484619 1043.030151,826.253723 1026.673340,797.253113 
	C1014.899658,776.378540 1003.275635,755.418274 991.742859,734.409302 
	C989.923279,731.094666 987.556213,729.436462 983.837463,729.428040 
	C957.345520,729.367981 930.853271,729.326355 904.361816,729.472717 
	C899.784302,729.497986 898.584290,730.880066 898.451904,735.639648 
	C898.275940,741.968079 898.395325,748.301697 898.394470,754.633057 
	C898.388123,802.785583 898.402710,850.938049 898.375793,899.090576 
	C898.373840,902.567505 898.734802,906.119568 896.708496,909.719604 
	C890.546631,912.186035 884.374023,911.719482 878.302917,912.005493 
	C867.728760,912.503357 857.184143,911.153687 846.550476,911.820862 
	C839.866089,912.240295 833.015381,912.619324 826.238159,911.748962 
	C817.320068,910.603760 808.358459,912.649292 799.414978,911.546753 
	C797.794983,911.347046 796.098328,911.772522 794.232727,910.487671 
	C791.985413,906.746521 792.621399,903.000671 792.617126,899.391663 
	C792.554688,846.912903 792.578430,794.434143 792.577393,741.955322 
	C792.575928,665.486206 792.575684,589.017090 792.580627,512.547974 
	C792.580872,508.717133 792.497681,504.883392 792.833130,500.560974 
	C792.286743,461.675781 792.649536,423.287201 792.669189,384.899261 
	C792.670288,382.790222 792.472961,380.514343 794.621582,378.477081 
	C803.130188,378.046661 811.276306,377.885986 819.422363,377.883179 
	C878.871765,377.862579 938.321228,377.862793 997.770630,377.879425 
	C1028.178345,377.887939 1058.033325,382.022766 1086.414551,393.025482 
	C1110.597900,402.400787 1132.279541,415.934692 1149.957764,435.616638 
	C1164.880371,452.230682 1175.663086,470.923920 1182.879883,492.296814 
z"/>
<path fill="#A283CF" opacity="1.000000" stroke="none" 
	d="
M1103.788330,929.702393 
	C1105.689941,924.563660 1104.722290,919.535828 1104.770142,914.583374 
	C1104.806519,910.812317 1105.922363,909.201538 1109.924927,909.251465 
	C1128.871338,909.487915 1147.820190,909.577393 1166.768433,909.597961 
	C1179.723877,909.612061 1192.679443,909.426636 1206.007446,909.189941 
	C1207.651978,906.777466 1209.907837,906.714417 1212.055298,906.699036 
	C1220.533325,906.638428 1229.020996,906.192749 1237.484863,907.019226 
	C1241.991333,907.459229 1246.427490,906.494873 1250.925415,906.553650 
	C1267.704956,906.773193 1284.488525,907.037109 1301.266968,906.562805 
	C1306.292603,906.420837 1311.177734,907.694458 1316.597412,907.541260 
	C1324.670044,907.042664 1332.262817,908.265991 1339.794434,909.016357 
	C1365.108154,911.538208 1389.419189,918.284790 1412.436768,929.190002 
	C1420.835083,933.168884 1428.915039,937.886292 1436.355835,944.241394 
	C1437.674927,944.870728 1438.355957,945.671387 1439.349731,946.678955 
	C1441.465454,949.756958 1443.791992,952.098328 1446.368530,954.235840 
	C1471.981934,975.484985 1488.250732,1002.851196 1496.091797,1034.748291 
	C1501.288452,1055.887817 1502.357544,1077.653198 1500.797119,1099.655762 
	C1499.173950,1122.546021 1494.118286,1144.135498 1484.011353,1164.711548 
	C1475.978027,1181.065796 1465.081787,1195.165649 1452.081299,1207.762939 
	C1438.673096,1220.755249 1423.268066,1230.786743 1406.237305,1238.334473 
	C1402.813721,1239.851685 1402.542847,1241.372559 1404.432373,1244.658325 
	C1420.103638,1271.907104 1435.490601,1299.319214 1451.113403,1326.596069 
	C1465.656616,1351.987793 1480.458618,1377.231079 1495.004517,1402.621338 
	C1505.422485,1420.806519 1515.559204,1439.152832 1525.937866,1457.360840 
	C1527.788330,1460.607300 1527.309692,1461.765503 1523.506470,1461.761353 
	C1488.181396,1461.723389 1452.856323,1461.731812 1417.531250,1461.789062 
	C1414.873657,1461.793457 1413.184570,1460.782837 1411.917847,1458.489136 
	C1399.862915,1436.662598 1387.800293,1414.840088 1375.653809,1393.064453 
	C1366.178345,1376.076904 1356.535400,1359.182983 1347.049438,1342.201294 
	C1336.749512,1323.762573 1326.569092,1305.256836 1316.288086,1286.807373 
	C1311.513428,1278.239136 1306.548096,1269.776489 1301.829834,1261.177856 
	C1300.291626,1258.374634 1297.889282,1258.500977 1295.393555,1258.501709 
	C1274.565430,1258.508667 1253.737427,1258.530396 1232.909302,1258.545532 
	C1225.744751,1258.550781 1218.569092,1258.790527 1211.419678,1258.462769 
	C1207.107544,1258.265137 1206.123169,1259.894653 1206.131836,1263.924438 
	C1206.246216,1316.579590 1206.212646,1369.234985 1206.214233,1421.890381 
	C1206.214600,1433.554565 1206.089966,1445.220581 1206.270752,1456.881836 
	C1206.328003,1460.570679 1205.130981,1461.830200 1201.409180,1461.816162 
	C1170.916626,1461.701172 1140.422974,1461.641479 1109.931274,1461.837402 
	C1104.960449,1461.869385 1104.753418,1459.498169 1104.756836,1455.698730 
	C1104.820923,1384.381470 1104.799683,1313.064087 1104.781738,1241.746826 
	C1104.781250,1239.752686 1104.620117,1237.758667 1104.367432,1235.386353 
	C1103.884155,1232.461792 1105.765015,1231.549072 1107.531616,1230.598389 
	C1126.264038,1220.517090 1142.142090,1206.911499 1155.425415,1190.452881 
	C1168.079102,1174.774658 1176.803223,1156.935303 1182.662109,1137.602539 
	C1189.523804,1114.960571 1190.784180,1091.764404 1189.431885,1068.457275 
	C1188.173706,1046.770996 1183.165771,1025.779175 1173.802124,1005.997620 
	C1159.741455,976.292969 1138.011597,953.856140 1109.393555,937.919067 
	C1107.091187,936.636902 1104.616577,935.501526 1103.049316,932.696289 
	C1102.798218,931.454346 1102.975708,930.668823 1103.788330,929.702393 
z"/>
<path fill="#8BC9CF" opacity="1.000000" stroke="none" 
	d="
M1104.067871,931.837952 
	C1121.093872,941.622192 1136.965942,952.152100 1150.038696,966.497192 
	C1167.748535,985.930847 1179.627563,1008.295349 1186.286011,1033.777832 
	C1191.951904,1055.461426 1193.157593,1077.449585 1191.808838,1099.508789 
	C1190.497070,1120.960693 1185.440674,1141.638184 1176.126221,1161.364990 
	C1162.079346,1191.114380 1140.480225,1213.526001 1112.699341,1230.448486 
	C1110.146118,1232.003784 1107.409424,1233.257935 1104.479492,1234.830078 
	C1089.941528,1243.606934 1074.010132,1247.755371 1058.145630,1251.878540 
	C1026.193726,1260.182617 993.467224,1258.238403 960.934570,1258.507080 
	C940.782959,1258.673706 920.626709,1258.639160 900.476624,1258.377319 
	C895.495972,1258.312500 895.785645,1260.991577 895.788025,1264.376343 
	C895.833801,1328.168091 895.770142,1391.960083 895.936829,1455.751465 
	C895.949890,1460.765869 894.241211,1461.829224 889.613953,1461.800659 
	C859.800415,1461.616821 829.984497,1461.586182 800.171509,1461.803345 
	C795.533813,1461.837158 794.694763,1460.254639 794.701111,1456.078735 
	C794.808228,1385.787109 794.778076,1315.495483 794.770325,1245.203735 
	C794.770142,1243.206543 794.682434,1241.209473 794.595947,1238.765381 
	C794.680664,1237.306641 794.154053,1236.426758 793.852112,1235.002197 
	C792.619995,1230.816284 792.574097,1227.003418 792.570984,1223.172852 
	C792.542542,1188.119263 792.658203,1153.065552 792.600769,1117.522949 
	C793.919128,1113.234375 792.532776,1109.457886 792.544922,1105.664551 
	C792.578979,1095.041748 792.751343,1084.416504 792.432922,1073.295654 
	C794.249329,1068.370239 792.492065,1063.899536 792.517334,1059.454712 
	C792.646179,1036.791870 792.576538,1014.127625 792.578491,991.463867 
	C792.580505,967.466980 792.527893,943.470032 792.630920,919.473450 
	C792.644165,916.391052 791.955383,913.085754 794.640198,910.093689 
	C805.827576,908.972595 816.597351,909.257874 827.367310,909.397217 
	C833.982178,909.482849 840.598633,909.453064 847.214417,909.462646 
	C857.487488,909.477478 867.760803,909.526367 878.033508,909.472534 
	C883.669189,909.442993 889.303833,909.232605 895.392700,909.082336 
	C897.369568,907.198914 899.390991,906.949646 901.671570,906.928772 
	C930.133545,906.668335 958.595215,906.819397 987.056091,906.802307 
	C1004.247253,906.791992 1021.271240,908.389709 1038.325806,909.774902 
	C1047.413452,910.513000 1056.328979,912.946350 1065.127197,915.402222 
	C1075.207153,918.216064 1085.340820,920.881958 1094.907104,925.362671 
	C1098.314331,926.958618 1101.355103,928.686584 1104.067871,931.837952 
z"/>
<path fill="#FECCA6" opacity="1.000000" stroke="none" 
	d="
M794.525513,378.039612 
	C794.928223,418.449615 794.872253,458.765015 794.779175,499.548615 
	C793.401062,502.192291 791.210815,502.268280 789.018616,502.321259 
	C783.689697,502.450104 778.359253,502.376953 773.029907,502.393829 
	C769.537537,502.404877 767.596558,504.013153 766.447937,507.308716 
	C757.855225,531.962280 749.406067,556.665771 740.816223,581.319458 
	C731.511414,608.025024 722.162354,634.713135 713.011841,661.473206 
	C706.018066,681.926147 699.086914,702.419556 691.746887,722.732300 
	C682.760193,747.602234 674.753540,772.806702 665.492737,797.571472 
	C664.155701,801.146973 662.293579,804.543640 661.924561,808.837280 
	C658.452454,814.661560 657.664978,821.041870 655.519531,826.929199 
	C646.838745,850.749207 638.275452,874.618225 630.423706,898.732544 
	C629.571716,901.348999 628.916138,904.268372 625.526611,905.671631 
	C621.551819,912.239868 621.074585,919.658447 618.452576,926.392334 
	C617.413940,929.059814 616.175537,930.077820 613.456177,930.074646 
	C577.295288,930.031799 541.134277,930.017761 504.973450,930.084717 
	C501.967010,930.090271 500.750427,928.958801 499.752136,926.094543 
	C489.027679,895.325439 477.626190,864.783813 467.390930,833.855225 
	C458.445526,806.824402 448.731537,780.063782 439.482391,753.146301 
	C432.501343,732.829590 425.684509,712.427917 418.169525,692.278931 
	C412.038544,675.840637 406.639954,659.129700 400.874329,642.554382 
	C389.787872,610.682190 378.675873,578.818909 367.566254,546.954712 
	C354.221924,508.681030 340.890594,470.402771 327.509857,432.141785 
	C321.724457,415.598907 315.921204,399.060883 309.912292,382.598663 
	C308.596222,378.993042 309.164520,377.839661 313.066071,377.848206 
	C346.894714,377.922058 380.723724,377.926208 414.552185,377.819977 
	C417.632935,377.810333 419.092987,379.063477 419.973846,381.743073 
	C431.639404,417.230347 443.268127,452.729950 455.029907,488.185394 
	C468.464600,528.683838 482.089233,569.119202 495.507233,609.623108 
	C506.482178,642.752441 517.280334,675.940369 528.146545,709.105713 
	C537.563965,737.849121 546.959045,766.599792 556.398499,795.335938 
	C556.897400,796.854614 557.719055,798.267273 558.765625,800.546143 
	C562.095581,790.746338 565.211182,781.721130 568.229492,772.663452 
	C573.875366,755.721130 579.490601,738.768494 585.071594,721.804688 
	C593.038635,697.588074 600.919250,673.343079 608.916748,649.136597 
	C620.530762,613.984009 632.223267,578.857300 643.868958,543.715149 
	C655.570251,508.405212 667.559448,473.186523 678.821472,437.736908 
	C684.631165,419.449646 691.840698,401.624786 696.699097,383.035004 
	C697.637756,379.443298 699.277649,377.729004 703.582092,377.766052 
	C733.741943,378.025635 763.904907,377.928192 794.525513,378.039612 
z"/>
<path fill="#FE9999" opacity="1.000000" stroke="none" 
	d="
M1296.769531,694.821716 
	C1306.288452,711.423096 1315.560669,727.745728 1324.795654,744.089417 
	C1343.497070,777.186096 1362.176636,810.295227 1380.873047,843.394653 
	C1382.015625,845.417236 1383.228516,847.400024 1384.442505,849.737000 
	C1373.449341,857.722107 1361.728760,864.391357 1349.979736,870.656738 
	C1339.022705,876.499878 1328.497437,883.073547 1317.511963,888.833618 
	C1314.145386,890.598816 1310.807617,890.351013 1306.984131,889.472534 
	C1304.351929,889.155823 1303.241333,887.504883 1302.249268,885.738098 
	C1290.811890,865.368958 1279.512695,844.921814 1267.750122,824.736450 
	C1266.999390,823.447815 1266.407959,822.070618 1265.768066,820.324341 
	C1265.802612,817.749634 1265.155029,815.860168 1263.092041,814.210693 
	C1262.717773,813.755066 1262.586914,813.558289 1262.312012,813.041199 
	C1261.991089,811.255249 1261.026489,810.341309 1259.674072,809.282104 
	C1258.212280,807.093628 1256.938232,805.183533 1255.703491,802.861877 
	C1255.045044,801.854004 1254.683350,801.058655 1254.008301,800.055542 
	C1252.702148,797.719727 1251.643311,795.637695 1250.691895,793.118652 
	C1249.930054,788.593933 1248.132324,785.039062 1244.529907,782.088501 
	C1235.988770,769.212952 1229.264771,755.698486 1221.729980,742.651062 
	C1220.401367,740.350220 1219.197388,737.942444 1220.245483,734.779785 
	C1226.059692,732.230103 1231.442505,729.587402 1236.837158,726.781677 
	C1249.215942,720.343445 1260.989136,712.862061 1273.376099,706.465759 
	C1279.987793,703.051636 1286.707886,699.747986 1292.382690,694.762634 
	C1293.594849,693.697815 1295.074829,693.508240 1296.769531,694.821716 
z"/>
<path fill="#FE6767" opacity="1.000000" stroke="none" 
	d="
M1297.001465,694.726624 
	C1292.715942,695.898865 1290.437744,699.784119 1286.891479,701.886108 
	C1273.457397,709.848877 1259.265137,716.438660 1246.081787,724.854736 
	C1241.086060,728.043945 1235.293579,729.910767 1230.517456,733.633240 
	C1227.840332,735.719666 1224.461304,734.992981 1220.850098,735.010620 
	C1216.962402,735.334167 1215.808105,732.645813 1214.590088,730.392273 
	C1207.024048,716.392151 1198.825195,702.749146 1191.207520,688.779236 
	C1184.541382,676.554138 1177.415039,664.588501 1170.665894,652.409302 
	C1169.274780,649.898987 1168.046143,647.434875 1168.175903,644.126770 
	C1178.094238,625.923340 1185.276733,607.078857 1188.555420,586.908875 
	C1190.772339,573.271362 1191.761963,559.504150 1191.331299,545.658142 
	C1190.833862,529.666687 1188.046875,513.999207 1184.889648,497.930145 
	C1189.653687,502.731201 1192.317505,509.246613 1195.776123,515.251160 
	C1206.148193,533.257996 1216.551514,551.257629 1226.398438,569.552979 
	C1235.044556,585.617371 1244.564697,601.176270 1253.138916,617.288696 
	C1259.594971,629.420715 1266.595459,641.308228 1273.544189,653.179993 
	C1281.525269,666.815308 1288.795654,680.845215 1297.001465,694.726624 
z"/>
<path fill="#B66DA4" opacity="1.000000" stroke="none" 
	d="
M794.579285,1072.656616 
	C794.682129,1087.432861 794.684692,1101.848267 794.546387,1116.725098 
	C784.829651,1116.966187 777.680969,1123.224609 769.496765,1126.662109 
	C763.715515,1129.090210 758.438782,1132.631470 752.904175,1135.609009 
	C750.117798,1137.107910 747.070618,1139.243286 743.469604,1136.280762 
	C737.962585,1127.190918 733.516479,1117.939575 728.947693,1108.738159 
	C719.357239,1089.423462 709.433655,1070.274536 699.709656,1051.025879 
	C692.676025,1037.102661 685.743408,1023.128357 678.694702,1008.831604 
	C678.652954,1007.614990 677.967590,1007.089783 677.480103,1006.139160 
	C676.851990,1004.929016 676.358582,1003.983154 675.793823,1002.723755 
	C675.614685,1001.583374 674.972656,1001.060547 674.438232,1000.138428 
	C673.813049,998.939392 673.326599,997.999512 672.768066,996.747925 
	C671.852234,994.334290 670.696045,992.397888 669.325928,990.195312 
	C668.645081,989.001160 668.168396,988.078430 667.630676,986.849121 
	C664.403625,977.895874 664.505554,978.094177 672.763306,973.848267 
	C688.303528,965.858032 703.631409,957.440247 719.665405,950.457581 
	C723.184692,948.925110 724.301270,944.725037 728.461792,943.700317 
	C730.916626,943.894226 732.089844,945.247437 732.938354,946.955994 
	C742.190491,965.585205 751.704163,984.083191 760.962769,1002.710388 
	C769.768677,1020.426758 779.125610,1037.887207 787.946289,1055.609863 
	C790.610229,1060.962402 793.236511,1066.368530 794.579285,1072.656616 
z"/>
<path fill="#82638F" opacity="1.000000" stroke="none" 
	d="
M729.471130,944.662109 
	C719.128357,956.661926 703.838745,959.443542 691.200256,966.758972 
	C683.808533,971.037476 676.551514,976.088318 667.966125,978.164124 
	C666.252136,978.578491 666.244202,979.931091 666.626831,981.369385 
	C667.010742,982.812439 667.331482,984.272278 667.624878,986.133667 
	C664.653015,982.676147 662.608643,978.305542 660.460815,974.010620 
	C649.901123,952.894958 639.418762,931.740479 628.863770,910.622375 
	C628.064941,909.024170 627.525208,907.166809 625.472656,906.039185 
	C636.425964,873.645447 647.667847,841.427795 659.153137,808.955872 
	C663.630615,808.328857 664.600220,811.890625 665.859375,814.548767 
	C671.620300,826.710144 678.413696,838.331909 684.145508,850.524841 
	C689.218933,861.317200 695.254700,871.680542 700.242676,882.539429 
	C706.679504,896.552185 714.494873,909.859802 721.078430,923.791260 
	C723.424927,928.756592 726.600647,933.271545 728.812378,938.301025 
	C729.665771,940.241638 731.012939,942.130371 729.471130,944.662109 
z"/>
<path fill="#FECCA6" opacity="1.000000" stroke="none" 
	d="
M1306.307861,888.277588 
	C1315.462646,889.680664 1321.932861,883.834412 1328.328369,879.754517 
	C1339.529907,872.608887 1352.188599,868.167908 1362.856445,860.149719 
	C1368.337036,856.030457 1375.747192,854.849609 1379.963257,848.624695 
	C1381.576172,846.243225 1382.479980,849.726013 1384.197510,849.981323 
	C1384.611694,850.174072 1384.747192,850.275452 1384.967041,850.615967 
	C1387.656738,854.865784 1389.748779,859.158813 1392.026367,863.724365 
	C1392.462402,864.612854 1392.822632,865.168457 1393.240479,866.053467 
	C1393.393799,867.719482 1394.654541,868.371338 1395.246338,869.768921 
	C1396.211426,871.145630 1397.053345,872.242065 1397.972900,873.678162 
	C1398.473267,874.447205 1398.857056,874.904968 1399.206055,875.744934 
	C1399.548950,876.403687 1399.789185,876.780579 1400.091797,877.490845 
	C1405.623413,887.526428 1411.547729,896.977722 1416.356934,907.433105 
	C1417.684204,909.674316 1418.938477,911.566345 1420.281494,914.141846 
	C1420.370239,914.825317 1420.787354,914.892334 1420.949707,915.027588 
	C1422.060059,916.063965 1422.608521,917.234436 1423.422119,918.612610 
	C1423.726562,919.066833 1423.861816,919.248596 1424.083008,919.759033 
	C1426.278931,922.877136 1427.460571,926.164978 1429.192749,929.546753 
	C1431.878906,934.050232 1434.445312,938.228455 1437.122559,942.748779 
	C1437.671143,943.736084 1437.858643,944.430908 1437.454712,945.520508 
	C1429.644043,942.790161 1423.380005,937.417480 1416.178711,933.639038 
	C1401.538330,925.957703 1385.879517,921.308533 1370.047363,916.803589 
	C1353.309326,912.041016 1336.055542,911.733398 1318.709839,909.034424 
	C1317.707153,908.745667 1318.495728,909.025574 1317.874756,908.782959 
	C1313.700806,907.151917 1305.492188,893.131836 1306.307861,888.277588 
z"/>
<path fill="#FE6767" opacity="1.000000" stroke="none" 
	d="
M743.296875,1136.364746 
	C747.024536,1136.097046 750.417908,1134.692993 753.481079,1132.692993 
	C764.478210,1125.512573 777.014160,1121.286865 788.181763,1114.463745 
	C791.413086,1112.489502 792.592346,1114.634644 794.152832,1117.019531 
	C794.424866,1156.268188 794.444214,1195.349854 794.414978,1234.923096 
	C794.463257,1235.829468 794.456055,1236.243530 794.045044,1236.680542 
	C785.217834,1220.004517 776.640869,1203.337402 768.210083,1186.596680 
	C759.854065,1170.004517 751.645386,1153.338135 743.296875,1136.364746 
z"/>
<path fill="#FE9999" opacity="1.000000" stroke="none" 
	d="
M1416.421143,907.456421 
	C1410.613037,898.261963 1404.932251,888.665955 1400.166748,878.189148 
	C1406.132812,887.282776 1411.868530,896.876038 1416.421143,907.456421 
z"/>
<path fill="#FE9999" opacity="1.000000" stroke="none" 
	d="
M1392.120605,863.724487 
	C1388.349731,860.700256 1387.055176,855.963440 1385.078735,851.224670 
	C1388.211060,854.583374 1390.082031,859.040161 1392.120605,863.724487 
z"/>
<path fill="#FE9999" opacity="1.000000" stroke="none" 
	d="
M1429.281738,929.552979 
	C1426.525635,927.444214 1425.603394,923.972168 1424.190186,920.425537 
	C1426.652954,922.697510 1427.619385,926.150513 1429.281738,929.552979 
z"/>
<path fill="#82638F" opacity="1.000000" stroke="none" 
	d="
M669.136230,990.276245 
	C671.610657,991.036255 672.225830,993.324585 672.715210,996.058105 
	C670.731445,994.978271 669.979309,992.780029 669.136230,990.276245 
z"/>
<path fill="#FE9999" opacity="1.000000" stroke="none" 
	d="
M1437.410400,946.054810 
	C1437.218628,945.146179 1437.180054,944.455139 1437.187500,943.427490 
	C1438.449585,943.871704 1438.846802,945.193420 1439.501587,946.691650 
	C1438.910767,946.746582 1438.237061,946.509460 1437.410400,946.054810 
z"/>
<path fill="#FE9999" opacity="1.000000" stroke="none" 
	d="
M1423.565430,918.591553 
	C1422.048218,918.413940 1421.637817,917.069763 1421.147339,915.461426 
	C1422.637329,915.653381 1422.717896,917.262695 1423.565430,918.591553 
z"/>
<path fill="#FE9999" opacity="1.000000" stroke="none" 
	d="
M1395.355469,869.743164 
	C1394.006592,869.514526 1393.279541,868.524353 1393.260986,866.718140 
	C1393.979248,867.401001 1394.660278,868.419128 1395.355469,869.743164 
z"/>
<path fill="#FE9999" opacity="1.000000" stroke="none" 
	d="
M1399.315918,875.774902 
	C1398.892334,875.527649 1398.475952,875.028442 1398.055054,874.273560 
	C1398.474609,874.519531 1398.898804,875.021179 1399.315918,875.774902 
z"/>
<path fill="#82638F" opacity="1.000000" stroke="none" 
	d="
M674.293884,1000.189026 
	C675.113342,1000.257935 675.625183,1000.867554 675.735596,1002.092163 
	C675.244324,1001.773071 674.766296,1001.135864 674.293884,1000.189026 
z"/>
<path fill="#82638F" opacity="1.000000" stroke="none" 
	d="
M677.327271,1006.182129 
	C678.155457,1006.286072 678.634766,1006.923340 678.658997,1008.166992 
	C678.185547,1007.820679 677.747314,1007.154968 677.327271,1006.182129 
z"/>
<path fill="#B66DA4" opacity="1.000000" stroke="none" 
	d="
M793.773865,1237.018188 
	C793.843994,1236.344727 793.957275,1235.985474 794.218445,1235.520508 
	C794.488281,1236.136353 794.610229,1236.857910 794.644287,1237.948975 
	C794.309875,1237.989746 794.063477,1237.661133 793.773865,1237.018188 
z"/>
<path fill="#FE6767" opacity="1.000000" stroke="none" 
	d="
M1185.008911,497.176086 
	C1184.220703,497.200043 1183.842041,496.562714 1183.744629,495.350647 
	C1184.184814,495.571808 1184.600464,496.185791 1185.008911,497.176086 
z"/>
<path fill="#FE9999" opacity="1.000000" stroke="none" 
	d="
M1420.379883,914.706177 
	C1420.370239,914.825317 1420.129517,914.438599 1420.126221,914.329956 
	C1420.123047,914.221252 1420.389404,914.586975 1420.379883,914.706177 
z"/>
<path fill="#FE6767" opacity="1.000000" stroke="none" 
	d="
M1183.080811,492.664551 
	C1183.039673,492.645264 1183.024536,492.632446 1183.051514,492.657288 
	C1183.078491,492.682098 1183.121948,492.683838 1183.080811,492.664551 
z"/>
<path fill="#363333" opacity="1.000000" stroke="none" 
	d="
M729.387207,945.196777 
	C725.501038,935.071411 719.737061,926.265076 715.058044,916.916199 
	C697.831909,882.497375 680.218994,848.272034 662.730103,813.984863 
	C661.900757,812.358948 660.865540,810.838074 659.661377,808.984924 
	C662.000854,796.738159 667.320679,785.696045 671.187622,774.158569 
	C680.272095,747.054077 689.750427,720.081177 699.133118,693.077087 
	C707.158936,669.978088 715.319641,646.925842 723.337341,623.823975 
	C733.965271,593.200989 744.548157,562.562256 755.072876,531.903625 
	C758.449585,522.067139 762.972168,512.631409 765.416687,502.476135 
	C765.962952,500.206665 767.320190,499.627777 769.395386,499.655334 
	C777.549805,499.763794 785.705017,499.814941 794.300964,499.952118 
	C794.755188,634.497314 794.768127,768.977844 794.785095,903.458313 
	C794.785339,905.290527 794.836670,907.122803 794.968201,909.397217 
	C794.031189,917.129272 794.760376,924.442017 794.762756,931.747192 
	C794.778015,978.517822 794.756592,1025.288452 794.713379,1072.538330 
	C788.528931,1064.996338 785.415161,1055.367920 780.818176,1046.531250 
	C764.848389,1015.832886 749.263733,984.934143 733.562500,954.096313 
	C732.127991,951.278809 730.907288,948.352295 729.387207,945.196777 
z"/>
<path fill="#363333" opacity="1.000000" stroke="none" 
	d="
M895.853882,612.000000 
	C895.859985,565.187500 895.927124,518.874756 895.767395,472.562836 
	C895.752502,468.242126 897.099976,467.376953 901.127197,467.394897 
	C935.113464,467.546387 969.109192,467.019470 1003.084595,467.644836 
	C1024.890869,468.046204 1045.646484,473.395599 1062.594727,488.163788 
	C1076.361572,500.159760 1085.691528,515.017029 1088.402832,533.498474 
	C1090.791870,549.783264 1091.138794,566.061890 1085.708862,581.766541 
	C1076.535400,608.298889 1057.866333,625.200623 1031.038696,633.002869 
	C1018.858154,636.545288 1006.236023,637.442261 993.611145,637.491516 
	C962.957214,637.611206 932.301514,637.394592 901.649048,637.638306 
	C896.650757,637.677979 895.445129,636.227844 895.778137,631.484741 
	C896.220459,625.185791 895.865234,618.830872 895.853882,612.000000 
z"/>
<path fill="#363333" opacity="1.000000" stroke="none" 
	d="
M1104.409302,931.731934 
	C1091.233032,926.293213 1077.862305,921.002930 1063.798706,917.557312 
	C1050.294800,914.248779 1036.719849,911.695312 1022.806335,910.765198 
	C982.603760,908.077698 942.364136,910.010559 902.145996,909.497131 
	C900.319702,909.473816 898.494873,909.333679 896.257874,909.154419 
	C895.839050,849.946777 895.868164,790.832581 895.742737,731.718628 
	C895.734375,727.773743 896.829163,726.593323 900.796753,726.614868 
	C929.272461,726.769653 957.749634,726.759033 986.225525,726.629639 
	C989.626221,726.614197 991.317810,728.060974 992.793152,730.798645 
	C1011.688965,765.864197 1031.388306,800.481140 1050.983765,835.158020 
	C1065.517700,860.877991 1079.587524,886.859863 1093.926025,912.690796 
	C1096.984741,918.200989 1100.310181,923.563110 1103.819336,929.224609 
	C1104.207031,930.104553 1104.287964,930.753296 1104.409302,931.731934 
z"/>
<path fill="#363333" opacity="1.000000" stroke="none" 
	d="
M1306.302490,887.801514 
	C1310.362183,894.777222 1314.151733,901.573486 1318.136963,908.672791 
	C1309.903809,910.324280 1301.427368,909.309143 1292.982056,909.344727 
	C1264.406250,909.465332 1235.829224,909.252136 1206.816162,909.108093 
	C1192.880737,885.426208 1179.369385,861.809753 1165.886230,838.177185 
	C1155.024902,819.140320 1144.204956,800.079895 1133.353394,781.037537 
	C1121.679932,760.552612 1109.927002,740.112549 1098.368896,719.562805 
	C1096.347046,715.968079 1091.700684,712.486511 1092.616943,709.005615 
	C1093.548706,705.466431 1099.462524,705.363464 1103.075317,703.495789 
	C1127.012817,691.120911 1146.942139,674.153992 1162.538574,652.156128 
	C1164.355713,649.593201 1165.924438,646.854126 1167.901855,643.978027 
	C1174.617432,653.242493 1179.534546,663.589050 1185.217407,673.496277 
	C1196.866333,693.804688 1208.354614,714.205139 1220.141968,734.775635 
	C1228.927002,750.198669 1237.479126,765.413757 1246.253784,780.940735 
	C1248.513550,784.572327 1249.853394,788.272949 1252.190063,791.816895 
	C1253.562866,794.302307 1254.815308,796.465759 1256.325928,798.905701 
	C1256.795776,799.579834 1257.016846,799.972290 1257.428833,800.644348 
	C1258.729980,803.151611 1259.849121,805.374146 1261.172363,807.911133 
	C1262.109375,809.229370 1262.674561,810.335022 1263.475098,811.660034 
	C1263.740845,812.149414 1263.836304,812.380005 1264.143311,812.919556 
	C1265.574707,814.814209 1266.251221,816.708740 1267.467773,818.676453 
	C1280.440308,841.844849 1293.236328,864.733398 1306.302490,887.801514 
z"/>
<path fill="#363333" opacity="1.000000" stroke="none" 
	d="
M1333.265991,1001.747070 
	C1350.542236,1004.783813 1364.938110,1012.363098 1377.269165,1024.236572 
	C1390.328369,1036.811279 1397.153442,1052.582031 1399.516113,1069.969482 
	C1402.497681,1091.910400 1399.206055,1113.338867 1387.005005,1132.189453 
	C1376.039429,1149.131592 1359.803101,1159.524414 1340.338257,1165.011719 
	C1328.541748,1168.337280 1316.478882,1169.348511 1304.383911,1169.456543 
	C1273.411255,1169.733643 1242.434204,1169.490601 1211.459839,1169.642212 
	C1207.366333,1169.662231 1206.075928,1168.529907 1206.087036,1164.323486 
	C1206.226318,1111.354248 1206.244995,1058.384521 1206.092041,1005.415344 
	C1206.078491,1000.709045 1207.208008,999.153381 1212.125366,999.184265 
	C1246.602783,999.400879 1281.082764,999.216187 1315.560059,999.439636 
	C1321.325439,999.476929 1327.082275,1000.874695 1333.265991,1001.747070 
z"/>
<path fill="#363333" opacity="1.000000" stroke="none" 
	d="
M947.635620,1169.526367 
	C931.700256,1169.503174 916.204163,1169.354248 900.710693,1169.494263 
	C897.117371,1169.526733 895.769958,1168.742310 895.779480,1164.839966 
	C895.910034,1111.347900 895.922485,1057.855103 895.809692,1004.362915 
	C895.801392,1000.420837 896.923828,999.265259 900.850342,999.280884 
	C936.177612,999.421692 971.520691,998.748840 1006.828430,999.595398 
	C1032.881592,1000.220032 1055.999023,1009.160461 1073.084961,1030.018921 
	C1081.754761,1040.602905 1087.512695,1052.624878 1089.472778,1066.358887 
	C1091.884033,1083.254761 1091.638916,1100.044312 1085.578857,1116.092896 
	C1078.192749,1135.653931 1065.111328,1150.278809 1045.873169,1159.394531 
	C1024.365723,1169.585449 1001.519897,1169.584717 978.568665,1169.505127 
	C968.404480,1169.469849 958.240112,1169.503296 947.635620,1169.526367 
z"/>
<path fill="#B66DA4" opacity="1.000000" stroke="none" 
	d="
M1252.370361,791.816528 
	C1249.715942,789.086182 1248.078735,785.488708 1246.472290,781.564270 
	C1249.581177,784.015259 1250.709351,787.927002 1252.370361,791.816528 
z"/>
<path fill="#B66DA4" opacity="1.000000" stroke="none" 
	d="
M1267.655762,818.635864 
	C1265.902466,817.664734 1265.448730,815.566223 1264.391357,813.525757 
	C1266.558594,814.208069 1266.924561,816.384521 1267.655762,818.635864 
z"/>
<path fill="#B66DA4" opacity="1.000000" stroke="none" 
	d="
M1263.662720,811.626953 
	C1262.266724,811.322632 1262.007446,809.927490 1261.390137,808.501831 
	C1262.906860,808.697083 1263.256958,810.043152 1263.662720,811.626953 
z"/>
<path fill="#B66DA4" opacity="1.000000" stroke="none" 
	d="
M1257.640747,800.705200 
	C1257.244507,800.493286 1256.878296,800.057434 1256.548096,799.401917 
	C1256.946411,799.615173 1257.308594,800.048157 1257.640747,800.705200 
z"/>
</svg>