<svg version="1.1" id="Layer_1" xmlns="http://www.w3.org/2000/svg" xmlns:xlink="http://www.w3.org/1999/xlink" x="0px" y="0px"
	 width="100%" viewBox="0 0 2000 2000" enable-background="new 0 0 2000 2000" xml:space="preserve">
<path fill="#1E1E1E" opacity="1.000000" stroke="none" 
	d="
M1107.000000,2001.000000 
	C738.000000,2001.000000 369.500000,2001.000000 1.000000,2001.000000 
	C1.000000,1334.333374 1.000000,667.666687 1.000000,1.000000 
	C667.666687,1.000000 1334.333374,1.000000 2001.000000,1.000000 
	C2001.000000,667.666687 2001.000000,1334.333374 2001.000000,2001.000000 
	C1703.166626,2001.000000 1405.333374,2001.000000 1107.000000,2001.000000 
M1678.958740,1083.559326 
	C1667.353149,1063.290527 1655.747559,1043.021729 1644.079102,1022.643066 
	C1646.912231,1021.267639 1649.320923,1020.148254 1651.685913,1018.942749 
	C1682.142822,1003.418091 1703.393066,979.805176 1713.603394,947.010132 
	C1720.962402,923.372986 1720.931519,899.119202 1716.968872,874.911865 
	C1711.813721,843.420044 1695.918457,818.317627 1670.127686,799.626404 
	C1643.658447,780.443542 1613.312866,772.634888 1581.257080,772.220337 
	C1528.436279,771.537170 1475.600342,772.012756 1422.770874,772.014404 
	C1421.487305,772.014404 1420.203857,772.184937 1418.611572,772.297852 
	C1418.528198,774.169922 1418.391968,775.804138 1418.391846,777.438416 
	C1418.382568,913.428711 1418.402100,1049.419067 1418.297363,1185.409180 
	C1418.294189,1189.583618 1419.469482,1190.764282 1423.612427,1190.729980 
	C1445.942627,1190.544434 1468.275146,1190.648315 1490.606934,1190.627319 
	C1492.022339,1190.625977 1493.437622,1190.411499 1495.198730,1190.268188 
	C1495.198730,1138.695557 1495.198730,1087.592896 1495.198730,1036.000244 
	C1497.203003,1036.000244 1498.823364,1036.000244 1500.443848,1036.000244 
	C1520.942383,1036.000244 1541.442017,1036.108521 1561.938477,1035.901245 
	C1565.638550,1035.863892 1567.375977,1037.106445 1569.139038,1040.274048 
	C1596.237427,1088.963501 1623.528687,1137.545532 1650.649902,1186.222412 
	C1652.392090,1189.349487 1654.179688,1190.758179 1657.920776,1190.733154 
	C1683.417847,1190.562378 1708.916504,1190.648315 1734.414673,1190.635254 
	C1735.985718,1190.634399 1737.556763,1190.494385 1740.000854,1190.377319 
	C1719.425903,1154.426758 1699.339478,1119.329956 1678.958740,1083.559326 
M963.991821,1117.506226 
	C945.968140,1086.003052 927.944397,1054.499756 910.023193,1023.175781 
	C910.237671,1022.712891 910.264771,1022.498962 910.373291,1022.443176 
	C912.572571,1021.310547 914.776733,1020.187378 916.988403,1019.079163 
	C944.693115,1005.196594 964.958618,984.307495 976.306702,955.302612 
	C986.181335,930.063721 987.106995,903.929688 983.039856,877.433411 
	C977.399414,840.687683 958.354065,812.853943 926.716797,793.652161 
	C902.285522,778.823914 875.231689,772.517456 847.048035,772.204285 
	C794.234985,771.617554 741.411072,772.012329 688.591675,772.015625 
	C687.161560,772.015686 685.731445,772.208008 684.260254,772.313660 
	C684.260254,911.811157 684.260254,1050.883301 684.260254,1190.286499 
	C709.874634,1190.286499 735.263672,1190.286499 761.161133,1190.286499 
	C761.161133,1138.705933 761.161133,1087.479370 761.161133,1036.000732 
	C783.643921,1036.000732 805.619934,1036.108276 827.592834,1035.896240 
	C831.312134,1035.860474 833.105103,1037.140137 834.838989,1040.255493 
	C862.014893,1089.084106 889.350037,1137.824097 916.511292,1186.660889 
	C918.218140,1189.729858 920.087952,1190.736206 923.501770,1190.718140 
	C949.161011,1190.582275 974.821167,1190.649170 1000.481079,1190.632935 
	C1001.902222,1190.632080 1003.323242,1190.456543 1005.590271,1190.306274 
	C991.594177,1165.835938 977.960083,1141.998657 963.991821,1117.506226 
M1331.019409,822.487183 
	C1322.425171,811.244751 1311.906738,802.142639 1299.919067,794.714355 
	C1275.151123,779.366455 1247.740723,772.577820 1219.037109,772.226318 
	C1165.728638,771.573486 1112.406860,772.014099 1059.090576,772.017090 
	C1057.820801,772.017151 1056.550903,772.226501 1055.364990,772.330872 
	C1055.364990,911.848572 1055.364990,1051.025024 1055.364990,1190.296631 
	C1080.975708,1190.296631 1106.221436,1190.296631 1132.012207,1190.296631 
	C1132.012207,1138.743652 1132.012207,1087.535156 1132.012207,1036.000488 
	C1142.692139,1036.000488 1152.828491,1036.098145 1162.962524,1035.980835 
	C1186.550293,1035.707642 1210.207031,1036.307129 1233.697021,1034.620117 
	C1247.183716,1033.651489 1260.900391,1030.274414 1273.642578,1025.604614 
	C1311.431885,1011.755188 1337.924194,986.068298 1350.676636,947.269958 
	C1355.992920,931.095703 1356.167114,914.383423 1356.093628,897.559082 
	C1355.973022,869.955688 1348.302368,845.026917 1331.019409,822.487183 
M633.937256,784.440857 
	C635.263611,780.430176 636.589966,776.419495 637.949402,772.308960 
	C637.011841,772.166626 636.521362,772.027222 636.030762,772.026978 
	C610.034180,772.011169 584.036804,772.099060 558.041809,771.893433 
	C554.532349,771.865662 553.956543,773.789734 553.173462,776.158875 
	C523.795288,865.035461 494.416687,953.911865 465.038971,1042.788574 
	C459.650787,1059.089355 454.266357,1075.391479 448.638824,1092.423584 
	C447.880341,1090.480103 447.361725,1089.312378 446.962311,1088.105225 
	C412.627502,984.333984 378.287506,880.564453 344.039429,776.764587 
	C342.912292,773.348389 341.572235,771.853333 337.615692,771.889404 
	C313.120850,772.113342 288.622986,772.002197 264.126099,772.002319 
	C262.536865,772.002319 260.947632,772.002319 259.057404,772.002319 
	C259.564240,773.852417 259.835663,775.135254 260.263855,776.363525 
	C271.895813,809.729004 283.540314,843.090149 295.189941,876.449524 
	C331.121155,979.340881 367.080139,1082.222656 402.895691,1185.154297 
	C404.297394,1189.182739 405.911133,1190.811646 410.440369,1190.766479 
	C435.934601,1190.512329 461.433868,1190.516846 486.928253,1190.763794 
	C491.377197,1190.806885 493.277527,1189.403564 494.693237,1185.291504 
	C512.377991,1133.925293 530.208679,1082.609375 548.051941,1031.297852 
	C576.581238,949.256714 605.148071,867.228577 633.937256,784.440857 
z"/>
<path fill="#A58CFF" opacity="1.000000" stroke="none" 
	d="
M1679.105957,1083.896240 
	C1699.339478,1119.329956 1719.425903,1154.426758 1740.000854,1190.377319 
	C1737.556763,1190.494385 1735.985718,1190.634399 1734.414673,1190.635254 
	C1708.916504,1190.648315 1683.417847,1190.562378 1657.920776,1190.733154 
	C1654.179688,1190.758179 1652.392090,1189.349487 1650.649902,1186.222412 
	C1623.528687,1137.545532 1596.237427,1088.963501 1569.139038,1040.274048 
	C1567.375977,1037.106445 1565.638550,1035.863892 1561.938477,1035.901245 
	C1541.442017,1036.108521 1520.942383,1036.000244 1500.443848,1036.000244 
	C1498.823364,1036.000244 1497.203003,1036.000244 1495.198730,1036.000244 
	C1495.198730,1087.592896 1495.198730,1138.695557 1495.198730,1190.268188 
	C1493.437622,1190.411499 1492.022339,1190.625977 1490.606934,1190.627319 
	C1468.275146,1190.648315 1445.942627,1190.544434 1423.612427,1190.729980 
	C1419.469482,1190.764282 1418.294189,1189.583618 1418.297363,1185.409180 
	C1418.402100,1049.419067 1418.382568,913.428711 1418.391846,777.438416 
	C1418.391968,775.804138 1418.528198,774.169922 1418.611572,772.297852 
	C1420.203857,772.184937 1421.487305,772.014404 1422.770874,772.014404 
	C1475.600342,772.012756 1528.436279,771.537170 1581.257080,772.220337 
	C1613.312866,772.634888 1643.658447,780.443542 1670.127686,799.626404 
	C1695.918457,818.317627 1711.813721,843.420044 1716.968872,874.911865 
	C1720.931519,899.119202 1720.962402,923.372986 1713.603394,947.010132 
	C1703.393066,979.805176 1682.142822,1003.418091 1651.685913,1018.942749 
	C1649.320923,1020.148254 1646.912231,1021.267639 1644.079102,1022.643066 
	C1655.747559,1043.021729 1667.353149,1063.290527 1679.105957,1083.896240 
M1495.131348,967.502991 
	C1495.424194,967.629578 1495.717041,967.756165 1496.934814,968.037781 
	C1524.919067,968.025757 1552.911865,968.396667 1580.882080,967.764954 
	C1589.116333,967.579041 1597.792725,965.774841 1605.397827,962.618958 
	C1637.647217,949.236328 1646.553223,918.592041 1641.517212,889.771118 
	C1636.377563,860.357117 1612.355835,841.728882 1583.936279,840.333740 
	C1554.696045,838.898315 1525.327148,840.080139 1495.483887,840.086548 
	C1495.398560,840.395020 1495.313354,840.703552 1495.114502,841.941589 
	C1495.152344,883.620667 1495.190186,925.299805 1495.131348,967.502991 
z"/>
<path fill="#9F90FF" opacity="1.000000" stroke="none" 
	d="
M964.158936,1117.833740 
	C977.960083,1141.998657 991.594177,1165.835938 1005.590271,1190.306274 
	C1003.323242,1190.456543 1001.902222,1190.632080 1000.481079,1190.632935 
	C974.821167,1190.649170 949.161011,1190.582275 923.501770,1190.718140 
	C920.087952,1190.736206 918.218140,1189.729858 916.511292,1186.660889 
	C889.350037,1137.824097 862.014893,1089.084106 834.838989,1040.255493 
	C833.105103,1037.140137 831.312134,1035.860474 827.592834,1035.896240 
	C805.619934,1036.108276 783.643921,1036.000732 761.161133,1036.000732 
	C761.161133,1087.479370 761.161133,1138.705933 761.161133,1190.286499 
	C735.263672,1190.286499 709.874634,1190.286499 684.260254,1190.286499 
	C684.260254,1050.883301 684.260254,911.811157 684.260254,772.313660 
	C685.731445,772.208008 687.161560,772.015686 688.591675,772.015625 
	C741.411072,772.012329 794.234985,771.617554 847.048035,772.204285 
	C875.231689,772.517456 902.285522,778.823914 926.716797,793.652161 
	C958.354065,812.853943 977.399414,840.687683 983.039856,877.433411 
	C987.106995,903.929688 986.181335,930.063721 976.306702,955.302612 
	C964.958618,984.307495 944.693115,1005.196594 916.988403,1019.079163 
	C914.776733,1020.187378 912.572571,1021.310547 910.373291,1022.443176 
	C910.264771,1022.498962 910.237671,1022.712891 910.023193,1023.175781 
	C927.944397,1054.499756 945.968140,1086.003052 964.158936,1117.833740 
M898.097473,940.597900 
	C909.284851,923.549438 910.669739,904.807983 906.219604,885.681274 
	C899.593384,857.201904 873.350281,840.459717 845.900452,840.073669 
	C819.265198,839.699036 792.621033,839.949707 765.980774,839.942017 
	C764.390198,839.941528 762.799683,840.084717 761.313354,840.156067 
	C761.313354,883.023804 761.313354,925.396057 761.313354,967.776733 
	C762.100586,967.901001 762.578796,968.042542 763.057007,968.042419 
	C791.695251,968.035156 820.357300,968.722900 848.963623,967.758240 
	C869.107483,967.078918 885.989868,958.341919 898.097473,940.597900 
z"/>
<path fill="#A18EFF" opacity="1.000000" stroke="none" 
	d="
M1331.254150,822.755615 
	C1348.302368,845.026917 1355.973022,869.955688 1356.093628,897.559082 
	C1356.167114,914.383423 1355.992920,931.095703 1350.676636,947.269958 
	C1337.924194,986.068298 1311.431885,1011.755188 1273.642578,1025.604614 
	C1260.900391,1030.274414 1247.183716,1033.651489 1233.697021,1034.620117 
	C1210.207031,1036.307129 1186.550293,1035.707642 1162.962524,1035.980835 
	C1152.828491,1036.098145 1142.692139,1036.000488 1132.012207,1036.000488 
	C1132.012207,1087.535156 1132.012207,1138.743652 1132.012207,1190.296631 
	C1106.221436,1190.296631 1080.975708,1190.296631 1055.364990,1190.296631 
	C1055.364990,1051.025024 1055.364990,911.848572 1055.364990,772.330872 
	C1056.550903,772.226501 1057.820801,772.017151 1059.090576,772.017090 
	C1112.406860,772.014099 1165.728638,771.573486 1219.037109,772.226318 
	C1247.740723,772.577820 1275.151123,779.366455 1299.919067,794.714355 
	C1311.906738,802.142639 1322.425171,811.244751 1331.254150,822.755615 
M1274.286987,931.723816 
	C1280.339844,918.149780 1281.020508,903.914551 1278.512817,889.599976 
	C1273.167603,859.087585 1246.168457,840.371155 1216.839355,840.052795 
	C1190.198853,839.763611 1163.552979,839.953247 1136.909546,839.932068 
	C1135.325562,839.930786 1133.741699,839.931885 1132.278564,839.931885 
	C1132.278564,883.042114 1132.278564,925.415466 1132.278564,967.790710 
	C1133.092041,967.910522 1133.573120,968.043213 1134.054199,968.043274 
	C1160.697632,968.048035 1187.341309,968.079041 1213.984497,967.995972 
	C1217.948120,967.983582 1221.940430,967.643250 1225.867920,967.089417 
	C1247.958008,963.974121 1264.351440,952.862793 1274.286987,931.723816 
z"/>
<path fill="#9C91FE" opacity="1.000000" stroke="none" 
	d="
M633.818115,784.817932 
	C605.148071,867.228577 576.581238,949.256714 548.051941,1031.297852 
	C530.208679,1082.609375 512.377991,1133.925293 494.693237,1185.291504 
	C493.277527,1189.403564 491.377197,1190.806885 486.928253,1190.763794 
	C461.433868,1190.516846 435.934601,1190.512329 410.440369,1190.766479 
	C405.911133,1190.811646 404.297394,1189.182739 402.895691,1185.154297 
	C367.080139,1082.222656 331.121155,979.340881 295.189941,876.449524 
	C283.540314,843.090149 271.895813,809.729004 260.263855,776.363525 
	C259.835663,775.135254 259.564240,773.852417 259.057404,772.002319 
	C260.947632,772.002319 262.536865,772.002319 264.126099,772.002319 
	C288.622986,772.002197 313.120850,772.113342 337.615692,771.889404 
	C341.572235,771.853333 342.912292,773.348389 344.039429,776.764587 
	C378.287506,880.564453 412.627502,984.333984 446.962311,1088.105225 
	C447.361725,1089.312378 447.880341,1090.480103 448.638824,1092.423584 
	C454.266357,1075.391479 459.650787,1059.089355 465.038971,1042.788574 
	C494.416687,953.911865 523.795288,865.035461 553.173462,776.158875 
	C553.956543,773.789734 554.532349,771.865662 558.041809,771.893433 
	C584.036804,772.099060 610.034180,772.011169 636.030762,772.026978 
	C636.521362,772.027222 637.011841,772.166626 637.949402,772.308960 
	C636.589966,776.419495 635.263611,780.430176 633.818115,784.817932 
z"/>
<path fill="#1E1E1E" opacity="1.000000" stroke="none" 
	d="
M1496.014648,840.116760 
	C1525.327148,840.080139 1554.696045,838.898315 1583.936279,840.333740 
	C1612.355835,841.728882 1636.377563,860.357117 1641.517212,889.771118 
	C1646.553223,918.592041 1637.647217,949.236328 1605.397827,962.618958 
	C1597.792725,965.774841 1589.116333,967.579041 1580.882080,967.764954 
	C1552.911865,968.396667 1524.919067,968.025757 1496.372192,967.784912 
	C1495.657104,967.304260 1495.463257,967.119873 1495.228027,966.978882 
	C1495.190186,925.299805 1495.152344,883.620667 1495.332886,841.356689 
	C1495.745605,840.581665 1495.900024,840.363342 1496.014648,840.116760 
z"/>
<path fill="#332F41" opacity="1.000000" stroke="none" 
	d="
M1495.749268,840.101685 
	C1495.900024,840.363342 1495.745605,840.581665 1495.389648,840.891846 
	C1495.313354,840.703552 1495.398560,840.395020 1495.749268,840.101685 
z"/>
<path fill="#332F41" opacity="1.000000" stroke="none" 
	d="
M1495.179688,967.240967 
	C1495.463257,967.119873 1495.657104,967.304260 1495.909668,967.707397 
	C1495.717041,967.756165 1495.424194,967.629578 1495.179688,967.240967 
z"/>
<path fill="#1E1E1E" opacity="1.000000" stroke="none" 
	d="
M897.934570,940.920654 
	C885.989868,958.341919 869.107483,967.078918 848.963623,967.758240 
	C820.357300,968.722900 791.695251,968.035156 763.057007,968.042419 
	C762.578796,968.042542 762.100586,967.901001 761.313354,967.776733 
	C761.313354,925.396057 761.313354,883.023804 761.313354,840.156067 
	C762.799683,840.084717 764.390198,839.941528 765.980774,839.942017 
	C792.621033,839.949707 819.265198,839.699036 845.900452,840.073669 
	C873.350281,840.459717 899.593384,857.201904 906.219604,885.681274 
	C910.669739,904.807983 909.284851,923.549438 897.934570,940.920654 
z"/>
<path fill="#1E1E1E" opacity="1.000000" stroke="none" 
	d="
M1274.149658,932.081177 
	C1264.351440,952.862793 1247.958008,963.974121 1225.867920,967.089417 
	C1221.940430,967.643250 1217.948120,967.983582 1213.984497,967.995972 
	C1187.341309,968.079041 1160.697632,968.048035 1134.054199,968.043274 
	C1133.573120,968.043213 1133.092041,967.910522 1132.278564,967.790710 
	C1132.278564,925.415466 1132.278564,883.042114 1132.278564,839.931885 
	C1133.741699,839.931885 1135.325562,839.930786 1136.909546,839.932068 
	C1163.552979,839.953247 1190.198853,839.763611 1216.839355,840.052795 
	C1246.168457,840.371155 1273.167603,859.087585 1278.512817,889.599976 
	C1281.020508,903.914551 1280.339844,918.149780 1274.149658,932.081177 
z"/>
</svg>